<svg width="117" height="117" viewBox="0 0 117 117" fill="red" xmlns="http://www.w3.org/2000/svg">
<path d="M50.6391 6.51954C49.4508 6.5424 48.2168 7.01771 47.0285 7.97062C45.269 9.34857 43.7379 11.7274 42.9609 14.7301C42.2068 17.7328 42.3897 20.7172 43.2123 23.0115C44.035 25.2738 45.3604 26.7592 47.0057 27.3305C48.3768 27.8103 49.885 27.6275 51.3475 26.7363C51.8731 23.6285 53.6098 21.188 56.2149 19.5152C56.2377 19.4718 56.2377 19.4284 56.2606 19.3827C57.0147 16.3777 56.8318 13.3956 56.0092 11.1104C55.1865 8.83669 53.8611 7.34906 52.2158 6.77548C51.6902 6.59724 51.1647 6.5104 50.6391 6.51954ZM99.1986 17.7876C98.4674 17.9522 96.685 18.5737 94.9254 19.4215C92.9373 20.3676 90.9492 21.4462 89.8067 22.0495L89.601 22.1523L89.3953 22.2094C80.6889 24.634 76.2557 26.3021 69.2174 27.5133C68.7147 28.9072 67.8463 30.3697 66.6352 31.8551H66.6123V31.8779C65.1955 33.5689 63.7787 35.2371 62.3391 36.8824C72.8051 34.94 80.3461 33.0662 92.6631 28.1988L93.6 27.8332L94.4912 28.3588C95.7481 29.1357 97.5533 29.6842 98.9701 29.7984C99.6785 29.867 100.296 29.7984 100.661 29.707C100.981 29.6156 100.981 29.5471 100.981 29.5699C102.215 26.8506 102.649 23.9941 102.238 21.8461C101.849 19.8146 100.935 18.5006 99.1986 17.7876ZM62.202 21.9558C60.1682 21.9329 57.6088 22.943 55.8949 25.5252C54.5467 32.2664 49.7936 36.9738 42.8238 39.8303L41.2699 36.0369C44.1721 34.8486 46.4344 33.4775 48.1483 31.7865C47.4399 31.7408 46.7086 31.5809 46.0002 31.3295C43.6236 30.484 41.7498 28.6787 40.493 26.4393C37.1567 27.0791 35.3285 27.8789 32.9977 29.7756C32.0608 38.1164 34.5516 45.2004 39.3047 51.8502C48.8338 46.0459 56.1463 38.025 63.4588 29.25C65.3326 26.9191 65.744 25.2281 65.6297 24.2455C65.4926 23.2857 65.0127 22.7076 63.9844 22.2848C63.4817 22.0769 62.8647 21.9603 62.202 21.9558ZM30.0498 42.3896C29.6613 47.6912 29.8899 53.4726 29.8213 59.5283V60.3967L29.2043 60.9908C17.2552 72.5537 7.74669 91.5205 4.65259 113.275H13.9349C16.019 103.86 17.9271 94.4684 21.8621 86.8359C26.0279 78.7693 32.792 72.668 43.8522 71.4111L44.949 71.274L45.6574 72.1195C54.3867 82.5627 62.8647 95.8623 65.2869 113.275H74.3361C72.8965 93.0744 63.6416 77.5125 52.1473 60.9451C49.9078 57.723 49.8164 54.1353 50.6619 50.6848C50.8676 49.8164 51.1418 48.9252 51.4389 48.0111C47.8969 51.1189 44.0578 53.9525 39.7846 56.3976L38.2078 57.2889L37.1338 55.8721C33.9346 51.7131 31.4666 47.2342 30.0498 42.3896Z" fill="#1D1C68"/>
</svg>
