<svg width="11" height="19" viewBox="0 0 11 19" fill="none" xmlns="http://www.w3.org/2000/svg">
<path fill-rule="evenodd" clip-rule="evenodd" d="M0.711789 10.4132C0.46964 10.171 0.333606 9.84252 0.333607 9.50001C0.333607 9.15751 0.46964 8.82903 0.711789 8.5868L8.01875 1.27985C8.1379 1.15648 8.28043 1.05808 8.43802 0.990381C8.59561 0.922685 8.7651 0.887054 8.93661 0.885565C9.10811 0.884075 9.2782 0.916756 9.43694 0.981701C9.59568 1.04665 9.7399 1.14256 9.86118 1.26384C9.98245 1.38511 10.0784 1.52933 10.1433 1.68807C10.2083 1.84681 10.2409 2.0169 10.2394 2.18841C10.238 2.35991 10.2023 2.52941 10.1346 2.68699C10.0669 2.84458 9.96853 2.98711 9.84517 3.10626L3.45141 9.50001L9.84516 15.8938C10.0805 16.1374 10.2106 16.4637 10.2077 16.8023C10.2048 17.141 10.0689 17.465 9.82943 17.7044C9.58994 17.9439 9.26598 18.0798 8.92731 18.0827C8.58864 18.0857 8.26236 17.9555 8.01875 17.7202L0.711789 10.4132Z" fill="currentColor"/>
</svg>
