<svg width="25" height="25" viewBox="0 0 25 25" fill="none" xmlns="http://www.w3.org/2000/svg">
<path d="M12.5 0C9.21742 0.00175047 6.06699 1.29332 3.72784 3.59629V0H2.05944V6.67361H8.73305V5.00521H4.68128C5.69261 3.95109 6.90648 3.11215 8.25005 2.53876C9.59362 1.96536 11.0392 1.66932 12.5 1.6684C18.4724 1.6684 23.3316 6.52763 23.3316 12.5C23.3316 18.4724 18.4724 23.3316 12.5 23.3316C6.52763 23.3316 1.6684 18.4724 1.6684 12.5H0C-3.07727e-06 14.9723 0.733107 17.389 2.10662 19.4446C3.48014 21.5002 5.43237 23.1024 7.71645 24.0485C10.0005 24.9946 12.5139 25.2421 14.9386 24.7598C17.3634 24.2775 19.5907 23.087 21.3388 21.3388C23.087 19.5907 24.2775 17.3634 24.7598 14.9386C25.2421 12.5139 24.9946 10.0005 24.0485 7.71645C23.1024 5.43237 21.5002 3.48014 19.4446 2.10662C17.389 0.733107 14.9723 -3.07727e-06 12.5 0Z" fill="currentColor"/>
<path d="M11.6528 5.00266L11.6249 14.1814H18.3264V12.513H13.2984L13.3212 5.00776L11.6528 5.00266Z" fill="currentColor"/>
</svg>
