<svg width="24" height="25" viewBox="0 0 24 25" fill="none" xmlns="http://www.w3.org/2000/svg">
<path d="M23.2194 10.1691L12.6837 0.476338C12.3412 0.161233 11.8902 -0.00929781 11.4249 0.000391388C10.9596 0.0100806 10.5161 0.199239 10.187 0.52833L0.497263 10.2181L0 10.7153V25H9.33727V16.0871H14.4303V25H23.7676V10.6735L23.2194 10.1691ZM11.4614 1.69772C11.4764 1.69772 11.4671 1.70095 11.4607 1.70727C11.4541 1.70095 11.4464 1.69772 11.4614 1.69772ZM22.0699 23.3023H16.128V16.0871C16.128 15.6369 15.9492 15.2051 15.6308 14.8867C15.3124 14.5683 14.8806 14.3895 14.4303 14.3895H9.33727C8.88702 14.3895 8.45521 14.5683 8.13683 14.8867C7.81845 15.2051 7.63959 15.6369 7.63959 16.0871V23.3023H1.69769V11.4185L11.4614 1.72875C11.4621 1.72812 11.4621 1.72753 11.4627 1.7269L22.0699 11.4185V23.3023Z" fill="currentColor"/>
</svg>
