<svg width="25" height="25" viewBox="0 0 25 25" fill="none" xmlns="http://www.w3.org/2000/svg">
<path d="M6.25 20.8333H10.8333C11.1647 20.8329 11.4825 20.7011 11.7168 20.4668C11.9511 20.2325 12.0829 19.9147 12.0833 19.5833V8.75C12.0829 8.4186 11.9511 8.10088 11.7168 7.86654C11.4825 7.63221 11.1647 7.50039 10.8333 7.5H6.25C5.9186 7.50039 5.60088 7.63221 5.36654 7.86654C5.13221 8.10088 5.00039 8.4186 5 8.75V19.5833C5.00039 19.9147 5.13221 20.2325 5.36654 20.4668C5.60088 20.7011 5.9186 20.8329 6.25 20.8333ZM6.66667 9.16667H10.4167V19.1667H6.66667V9.16667Z" fill="currentColor"/>
<path d="M21.25 0H16.6666C16.3352 0.000385961 16.0175 0.132206 15.7832 0.366543C15.5488 0.60088 15.417 0.918598 15.4166 1.25V19.5833C15.417 19.9147 15.5488 20.2325 15.7832 20.4668C16.0175 20.7011 16.3352 20.8329 16.6666 20.8333H21.25C21.5814 20.8329 21.8991 20.7011 22.1334 20.4668C22.3678 20.2325 22.4996 19.9147 22.5 19.5833V1.25C22.4996 0.918598 22.3678 0.60088 22.1334 0.366543C21.8991 0.132206 21.5814 0.000385961 21.25 0ZM20.8333 19.1667H17.0833V1.66667H20.8333V19.1667Z" fill="currentColor"/>
<path d="M1.66667 0H0V25H25V23.3333H1.66667V0Z" fill="currentColor"/>
</svg>
